<svg width="24" height="24" viewBox="0 0 24 24" fill="none" xmlns="http://www.w3.org/2000/svg">
<path fill-rule="evenodd" clip-rule="evenodd" d="M6.47505 14.463C6.35904 11.2921 8.83053 8.6252 12.001 8.5C15.1716 8.6252 17.6431 11.2921 17.527 14.463C17.527 15.78 18.958 17.063 19 18.383C19 18.4017 19 18.4203 19 18.439C19.031 19.2847 18.3717 19.9959 17.526 20.029H14.334C14.337 20.677 14.0928 21.3018 13.651 21.776C13.2264 22.2372 12.628 22.4996 12.001 22.4996C11.3741 22.4996 10.7757 22.2372 10.351 21.776C9.90934 21.3018 9.66508 20.677 9.66805 20.029H6.47505C5.62942 19.9959 4.97008 19.2847 5.00105 18.439C5.00105 18.4203 5.00105 18.4017 5.00105 18.383C5.04405 17.067 6.47505 15.781 6.47505 14.463Z" stroke="black" stroke-width="1.5" stroke-linecap="round" stroke-linejoin="round"/>
<path d="M9.66797 19.279C9.25376 19.279 8.91797 19.6148 8.91797 20.029C8.91797 20.4432 9.25376 20.779 9.66797 20.779V19.279ZM14.334 20.779C14.7482 20.779 15.084 20.4432 15.084 20.029C15.084 19.6148 14.7482 19.279 14.334 19.279V20.779ZM13.001 7.25C13.4152 7.25 13.751 6.91421 13.751 6.5C13.751 6.08579 13.4152 5.75 13.001 5.75V7.25ZM11.001 5.75C10.5868 5.75 10.251 6.08579 10.251 6.5C10.251 6.91421 10.5868 7.25 11.001 7.25V5.75ZM9.66797 20.779H14.334V19.279H9.66797V20.779ZM13.001 5.75H11.001V7.25H13.001V5.75Z" fill="black"/>
</svg>
